# xmcd
#
# Track frame offsets: 
#        150
#        61848
#        100671
#        120294
#
# Disc length: 1767 seconds
#
# Revision: 0
# Processed by: cddbd v1.5.2PL0 Copyright (c) Steve Scherf et al.
# Submitted via: ExactAudioCopy v0.99pb5
#
DISCID=2406e504
DTITLE=Eliane Radigue - Vice Versa, Etc. (1970) [CD1]
DYEAR=2009
DGENRE=Important
TTITLE0=Onward 9,5
TTITLE1=Onward 19
TTITLE2=Onward 38
TTITLE3=Onward 76
EXTD=
EXTT0=
EXTT1=
EXTT2=
EXTT3=
PLAYORDER=
